<svg xmlns="http://www.w3.org/2000/svg" viewBox="0 0 74.56 24.13"><defs><style>.cls-1{fill:#e60012;}.cls-2{fill:#231815;}</style></defs><title>자산 4</title><g id="레이어_2" data-name="레이어 2"><g id="레이어_1-2" data-name="레이어 1"><path class="cls-1" d="M30.42,4.75c.64-.11,2.5-.34,3.22-.4V.15H30.42Z"/><path class="cls-2" d="M10.86,14.58V6.91H16v.86h-3.1v2.54H15v.86H12.92v2.55H16v.86Z"/><path class="cls-2" d="M20,6.91h2.06a2.25,2.25,0,0,1,1.46.5,1.54,1.54,0,0,1,.61,1.2v4.27a1.54,1.54,0,0,1-.61,1.2,2.25,2.25,0,0,1-1.46.5H20a2.25,2.25,0,0,1-1.46-.5,1.54,1.54,0,0,1-.61-1.2V8.61a1.52,1.52,0,0,1,.61-1.2A2.19,2.19,0,0,1,20,6.91Zm0,1.7v4.27a.74.74,0,0,0,.31.59,1.19,1.19,0,0,0,1.46,0,.74.74,0,0,0,.31-.59V8.61A.74.74,0,0,0,21.79,8a1.19,1.19,0,0,0-1.46,0A.74.74,0,0,0,20,8.61Z"/><path class="cls-2" d="M46.93,6.73H49v6.81h1a1.1,1.1,0,0,0,.73-.25.75.75,0,0,0,.3-.59v-6h2.06v6.81h1a1.08,1.08,0,0,0,.73-.25.76.76,0,0,0,.31-.59v-6h2.06v4.76a2.59,2.59,0,0,1-1,2,3.79,3.79,0,0,1-2.49.86H51.06v-.27a3.49,3.49,0,0,1-1.46.27H46.93Z"/><path class="cls-2" d="M59.19,14.4v-6a1.54,1.54,0,0,1,.61-1.2,2.25,2.25,0,0,1,1.46-.5h2.06a2.25,2.25,0,0,1,1.46.5,1.54,1.54,0,0,1,.61,1.2v6H63.33V11H61.25V14.4Zm2.06-4.26h2.08V8.43A.74.74,0,0,0,63,7.84a1.19,1.19,0,0,0-1.46,0,.74.74,0,0,0-.31.59Z"/><path class="cls-2" d="M67.33,14.4V6.73h.47L73.53,11V6.73h1V14.4h-.47l-5.73-4.28V14.4Z"/><path class="cls-1" d="M24.74,8.22c1.66-.87,4-2.78,11.22-2.81.74,0,1.43,0,2.07,0V.18h3.22V5.84c2.49.51,3.79,1.41,4.57,2.41,1.2,1.56.25,4.26-1.7,5.78H43c.8-.57,2.81-2.3,2-4.48-.46-1.25-1.91-1.88-3.78-2.19v7.53H38V7.09H36.59a17.81,17.81,0,0,0-2.93.28v7.53H30.44V8.17a13.8,13.8,0,0,0-5.7,3.49Z"/><path class="cls-1" d="M4,15.07l-.84,0c-.58,0-1.35,0-2,0a3.86,3.86,0,0,0,2.39-1.06,2.76,2.76,0,0,0,.84-2c0-1.61-1-2.57-2.14-3.59S0,6.4,0,4.5A4.21,4.21,0,0,1,1.19,1.39,5,5,0,0,1,4.74,0L6,0C6.8,0,7.81,0,8.11,0H7.46A2.89,2.89,0,0,0,4.4,2.73c0,1.22,1,2.15,2,3.13C7.63,7,9,8.38,9,10.47,9,13.21,7.21,14.88,4,15.07Z"/><path class="cls-2" d="M41.25,22.48V17.53h1.26v4.95Z"/><path class="cls-2" d="M44.3,22.48V18.62h1.26v.55a.63.63,0,0,1,.19-.41.66.66,0,0,1,.44-.14h.63a1.28,1.28,0,0,1,.88.33,1,1,0,0,1,.37.78v2.75H46.81V19.72a.51.51,0,0,0-.18-.39.68.68,0,0,0-.44-.16.73.73,0,0,0-.45.16.51.51,0,0,0-.18.39v2.76Z"/><path class="cls-2" d="M53,22.48H51.75v-.55a.57.57,0,0,1-.63.55h-.63a1.32,1.32,0,0,1-.88-.32,1,1,0,0,1-.37-.78V19.73a1,1,0,0,1,.37-.79,1.32,1.32,0,0,1,.88-.32h1.26V17.53H53Zm-1.26-3.31h-.63a.68.68,0,0,0-.44.16.51.51,0,0,0-.18.39v1.66a.51.51,0,0,0,.18.39.63.63,0,0,0,.44.16.64.64,0,0,0,.45-.16.51.51,0,0,0,.18-.39Z"/><path class="cls-2" d="M57.94,18.62v3.86H56.69v-.55a.57.57,0,0,1-.63.55h-.63a1.31,1.31,0,0,1-.88-.32,1,1,0,0,1-.37-.78V18.62h1.25v2.76a.49.49,0,0,0,.19.39.69.69,0,0,0,.88,0,.49.49,0,0,0,.19-.39V18.62Z"/><path class="cls-2" d="M62.25,19.72h-.62a.57.57,0,0,0-.59-.55.84.84,0,0,0-.5.12.36.36,0,0,0-.17.34c0,.16.3.38.91.67a2,2,0,0,1,.86.58,1.17,1.17,0,0,1,.11.49,1,1,0,0,1-.37.79,1.32,1.32,0,0,1-.88.32h-.63c-.84,0-1.26-.37-1.26-1.1h.63c0,.37.24.55.58.55a1,1,0,0,0,.51-.11.41.41,0,0,0,.16-.35c0-.15-.3-.38-.91-.67s-.78-.42-.85-.58a1,1,0,0,1-.12-.49,1,1,0,0,1,.37-.79,1.35,1.35,0,0,1,.89-.32H61A1.09,1.09,0,0,1,62.25,19.72Z"/><path class="cls-2" d="M64.05,17.53h1.26v1.09h.62v.55h-.62v2.21a.47.47,0,0,0,.19.41.71.71,0,0,0,.37.14h.06v.55H65.3a1.31,1.31,0,0,1-.88-.32,1,1,0,0,1-.37-.78V19.17h-.62v-.55h.62Z"/><path class="cls-2" d="M68.37,22.48H67.11V18.62h1.26v1.1a1.22,1.22,0,0,1,.38-.82,1.25,1.25,0,0,1,.87-.28h.63v1.1H69a.66.66,0,0,0-.44.17.48.48,0,0,0-.18.38Z"/><path class="cls-2" d="M71.42,23a.56.56,0,0,0,.63.56h.63a.68.68,0,0,0,.44-.16.49.49,0,0,0,.19-.39v-1.1a.57.57,0,0,1-.63.55h-.63a1.35,1.35,0,0,1-.89-.32,1,1,0,0,1-.37-.78V18.62h1.26v2.76a.51.51,0,0,0,.18.39.67.67,0,0,0,.45.16.63.63,0,0,0,.44-.16.49.49,0,0,0,.19-.39V18.62h1.25V23a1,1,0,0,1-.37.77,1.28,1.28,0,0,1-.88.33H72.05A1.14,1.14,0,0,1,70.79,23Z"/></g></g></svg>