<svg xmlns="http://www.w3.org/2000/svg" viewBox="0 0 27.05 15.13"><defs><style>.cls-1{fill:#e60012;}</style></defs><title>자산 6</title><g id="레이어_2" data-name="레이어 2"><g id="레이어_1-2" data-name="레이어 1"><path class="cls-1" d="M11.12,4.82c.63-.11,2.5-.34,3.22-.4V.22H11.12Z"/><path class="cls-1" d="M5.44,8.29c1.66-.87,4-2.78,11.22-2.81.74,0,1.43,0,2.07,0V.25H22V5.91c2.49.51,3.79,1.41,4.56,2.41,1.21,1.56.26,4.26-1.69,5.78H23.73c.8-.57,2.81-2.3,2-4.48C25.28,8.37,23.83,7.74,22,7.43V15H18.73V7.16H17.29a17.71,17.71,0,0,0-2.93.28V15H11.14V8.24a13.8,13.8,0,0,0-5.7,3.49Z"/><path class="cls-1" d="M4,15.07l-.84,0c-.58,0-1.35,0-2,0a3.86,3.86,0,0,0,2.39-1.06,2.76,2.76,0,0,0,.84-2c0-1.61-1-2.57-2.14-3.59S0,6.4,0,4.5A4.21,4.21,0,0,1,1.19,1.39,5,5,0,0,1,4.74,0L6,0C6.8,0,7.81,0,8.11,0H7.46A2.89,2.89,0,0,0,4.4,2.73c0,1.22,1,2.15,2,3.13C7.63,7,9,8.38,9,10.47,9,13.21,7.21,14.88,4,15.07Z"/></g></g></svg>